<svg width="26" height="18" viewBox="0 0 26 18" fill="none" xmlns="http://www.w3.org/2000/svg">
<path d="M25.4296 3.28575C25.1444 2.21296 24.2413 1.36367 23.1481 1.09548C21.1042 0.559082 13.0238 0.559082 13.0238 0.559082C13.0238 0.559082 4.89579 0.559082 2.85192 1.09548C1.75868 1.36367 0.855576 2.21296 0.570384 3.28575C0 5.16313 0 9.18609 0 9.18609C0 9.18609 0 13.1643 0.570384 15.0864C0.855576 16.1592 1.75868 16.9638 2.85192 17.232C4.89579 17.7237 13.0238 17.7237 13.0238 17.7237C13.0238 17.7237 21.1042 17.7237 23.1481 17.232C24.2413 16.9638 25.1444 16.1592 25.4296 15.0864C26 13.1643 26 9.18609 26 9.18609C26 9.18609 26 5.16313 25.4296 3.28575ZM10.362 12.8068V5.56543L17.1115 9.18609L10.362 12.8068Z" fill="black"/>
</svg>
