<svg width="26" height="18" viewBox="0 0 26 18" fill="none" xmlns="http://www.w3.org/2000/svg">
<rect width="26" height="18" fill="#F5F5F5"/>
<g id="Home">
<rect width="1440" height="7650" transform="translate(-1184 -368)" fill="white"/>
<g id="Social-icons">
<path id="youtube" d="M25.4296 3.14437C25.1444 2.07158 24.2413 1.22229 23.1481 0.954088C21.1042 0.417694 13.0238 0.417694 13.0238 0.417694C13.0238 0.417694 4.89579 0.417694 2.85192 0.954088C1.75868 1.22229 0.855576 2.07158 0.570384 3.14437C0 5.02175 0 9.0447 0 9.0447C0 9.0447 0 13.023 0.570384 14.945C0.855576 16.0178 1.75868 16.8224 2.85192 17.0906C4.89579 17.5823 13.0238 17.5823 13.0238 17.5823C13.0238 17.5823 21.1042 17.5823 23.1481 17.0906C24.2413 16.8224 25.1444 16.0178 25.4296 14.945C26 13.023 26 9.0447 26 9.0447C26 9.0447 26 5.02175 25.4296 3.14437ZM10.362 12.6654V5.42404L17.1115 9.0447L10.362 12.6654Z" fill="black"/>
</g>
<g id="Useful-Info">
</g>
</g>
</svg>
